<mxfile host="65bd71144e" modified="2021-03-12T09:07:26.081Z" agent="5.0 (Windows NT 10.0; Win64; x64) AppleWebKit/537.36 (KHTML, like Gecko) Code/1.54.1 Chrome/87.0.4280.141 Electron/11.3.0 Safari/537.36" version="14.2.4" etag="Tt_cBP8qaAwpWNULeRPg" type="embed">
    <diagram id="i7SmLeTfUHw469pb4qUX" name="Page-1">
        <mxGraphModel dx="1118" dy="544" grid="1" gridSize="10" guides="1" tooltips="1" connect="1" arrows="1" fold="1" page="1" pageScale="1" pageWidth="827" pageHeight="1169" background="#EEEEEE" math="0" shadow="0">
            <root>
                <mxCell id="0"/>
                <mxCell id="1" parent="0"/>
                <mxCell id="2" value="线程A" style="rounded=0;whiteSpace=wrap;html=1;sketch=0;strokeColor=#909090;fillColor=#F5AB50;fontColor=#1A1A1A;" vertex="1" parent="1">
                    <mxGeometry x="230" y="40" width="120" height="60" as="geometry"/>
                </mxCell>
                <mxCell id="3" value="线程B" style="rounded=0;whiteSpace=wrap;html=1;sketch=0;strokeColor=#909090;fillColor=#F5AB50;fontColor=#1A1A1A;" vertex="1" parent="1">
                    <mxGeometry x="410" y="40" width="120" height="60" as="geometry"/>
                </mxCell>
                <mxCell id="4" value="" style="endArrow=classic;startArrow=classic;html=1;strokeColor=#182E3E;fontColor=#1A1A1A;exitX=1;exitY=0.5;exitDx=0;exitDy=0;entryX=0;entryY=0.5;entryDx=0;entryDy=0;" edge="1" parent="1" source="2" target="3">
                    <mxGeometry width="50" height="50" relative="1" as="geometry">
                        <mxPoint x="530" y="310" as="sourcePoint"/>
                        <mxPoint x="580" y="260" as="targetPoint"/>
                    </mxGeometry>
                </mxCell>
                <mxCell id="5" value="图1" style="text;html=1;strokeColor=#6F0000;fillColor=#a20025;align=center;verticalAlign=middle;whiteSpace=wrap;rounded=0;sketch=0;fontColor=#ffffff;" vertex="1" parent="1">
                    <mxGeometry x="360" y="120" width="40" height="20" as="geometry"/>
                </mxCell>
                <mxCell id="6" value="等待线程B(新节点y)" style="rounded=0;whiteSpace=wrap;html=1;sketch=0;strokeColor=#909090;fillColor=#F5AB50;fontColor=#1A1A1A;" vertex="1" parent="1">
                    <mxGeometry x="410" y="220" width="120" height="60" as="geometry"/>
                </mxCell>
                <mxCell id="7" value="同步队列" style="text;html=1;strokeColor=none;fillColor=none;align=center;verticalAlign=middle;whiteSpace=wrap;rounded=0;sketch=0;fontColor=#1A1A1A;" vertex="1" parent="1">
                    <mxGeometry x="350" y="10" width="40" height="20" as="geometry"/>
                </mxCell>
                <mxCell id="8" value="等待线程A(新节点x)" style="rounded=0;whiteSpace=wrap;html=1;sketch=0;strokeColor=#909090;fillColor=#F5AB50;fontColor=#1A1A1A;" vertex="1" parent="1">
                    <mxGeometry x="230" y="220" width="120" height="60" as="geometry"/>
                </mxCell>
                <mxCell id="10" value="图2" style="text;html=1;strokeColor=#6F0000;fillColor=#a20025;align=center;verticalAlign=middle;whiteSpace=wrap;rounded=0;sketch=0;fontColor=#ffffff;" vertex="1" parent="1">
                    <mxGeometry x="360" y="300" width="40" height="20" as="geometry"/>
                </mxCell>
                <mxCell id="14" value="等待队列" style="text;html=1;strokeColor=none;fillColor=none;align=center;verticalAlign=middle;whiteSpace=wrap;rounded=0;sketch=0;fontColor=#1A1A1A;" vertex="1" parent="1">
                    <mxGeometry x="350" y="190" width="80" height="20" as="geometry"/>
                </mxCell>
                <mxCell id="15" value="" style="endArrow=classic;html=1;strokeColor=#182E3E;fontColor=#1A1A1A;exitX=1;exitY=0.5;exitDx=0;exitDy=0;entryX=0;entryY=0.5;entryDx=0;entryDy=0;" edge="1" parent="1" source="8" target="6">
                    <mxGeometry width="50" height="50" relative="1" as="geometry">
                        <mxPoint x="380" y="430" as="sourcePoint"/>
                        <mxPoint x="430" y="380" as="targetPoint"/>
                    </mxGeometry>
                </mxCell>
                <mxCell id="20" value="线程C" style="rounded=0;whiteSpace=wrap;html=1;sketch=0;strokeColor=#909090;fillColor=#F5AB50;fontColor=#1A1A1A;" vertex="1" parent="1">
                    <mxGeometry x="150" y="380" width="80" height="60" as="geometry"/>
                </mxCell>
                <mxCell id="21" value="dummy" style="rounded=0;whiteSpace=wrap;html=1;sketch=0;strokeColor=#909090;fillColor=#F5AB50;fontColor=#1A1A1A;" vertex="1" parent="1">
                    <mxGeometry x="30" y="380" width="80" height="60" as="geometry"/>
                </mxCell>
                <mxCell id="23" value="" style="endArrow=classic;startArrow=classic;html=1;strokeColor=#182E3E;fontColor=#1A1A1A;exitX=1;exitY=0.5;exitDx=0;exitDy=0;entryX=0;entryY=0.5;entryDx=0;entryDy=0;" edge="1" parent="1" source="21" target="20">
                    <mxGeometry width="50" height="50" relative="1" as="geometry">
                        <mxPoint x="150" y="390" as="sourcePoint"/>
                        <mxPoint x="200" y="340" as="targetPoint"/>
                    </mxGeometry>
                </mxCell>
                <mxCell id="25" value="图3" style="text;html=1;strokeColor=#6F0000;fillColor=#a20025;align=center;verticalAlign=middle;whiteSpace=wrap;rounded=0;sketch=0;fontColor=#ffffff;" vertex="1" parent="1">
                    <mxGeometry x="100" y="460" width="40" height="20" as="geometry"/>
                </mxCell>
                <mxCell id="26" value="线程C" style="rounded=0;whiteSpace=wrap;html=1;sketch=0;strokeColor=#909090;fillColor=#F5AB50;fontColor=#1A1A1A;" vertex="1" parent="1">
                    <mxGeometry x="290" y="380" width="80" height="60" as="geometry"/>
                </mxCell>
                <mxCell id="27" value="线程A(节点x)" style="rounded=0;whiteSpace=wrap;html=1;sketch=0;strokeColor=#909090;fillColor=#F5AB50;fontColor=#1A1A1A;" vertex="1" parent="1">
                    <mxGeometry x="400" y="380" width="80" height="60" as="geometry"/>
                </mxCell>
                <mxCell id="28" value="" style="endArrow=classic;startArrow=classic;html=1;strokeColor=#182E3E;fontColor=#1A1A1A;entryX=0;entryY=0.5;entryDx=0;entryDy=0;" edge="1" parent="1" target="27">
                    <mxGeometry width="50" height="50" relative="1" as="geometry">
                        <mxPoint x="370" y="410" as="sourcePoint"/>
                        <mxPoint x="470" y="480" as="targetPoint"/>
                    </mxGeometry>
                </mxCell>
                <mxCell id="29" value="" style="endArrow=classic;html=1;strokeColor=#182E3E;fontColor=#1A1A1A;exitX=0.5;exitY=1;exitDx=0;exitDy=0;entryX=0.413;entryY=-0.017;entryDx=0;entryDy=0;entryPerimeter=0;" edge="1" parent="1" source="8" target="27">
                    <mxGeometry width="50" height="50" relative="1" as="geometry">
                        <mxPoint x="210" y="360" as="sourcePoint"/>
                        <mxPoint x="260" y="310" as="targetPoint"/>
                    </mxGeometry>
                </mxCell>
                <mxCell id="30" value="同步队列" style="text;html=1;strokeColor=none;fillColor=none;align=center;verticalAlign=middle;whiteSpace=wrap;rounded=0;sketch=0;fontColor=#1A1A1A;" vertex="1" parent="1">
                    <mxGeometry x="110" y="360" width="60" height="20" as="geometry"/>
                </mxCell>
                <mxCell id="31" value="同步队列" style="text;html=1;strokeColor=none;fillColor=none;align=center;verticalAlign=middle;whiteSpace=wrap;rounded=0;sketch=0;fontColor=#1A1A1A;" vertex="1" parent="1">
                    <mxGeometry x="330" y="350" width="60" height="20" as="geometry"/>
                </mxCell>
                <mxCell id="32" value="等待线程B(新节点y)" style="rounded=0;whiteSpace=wrap;html=1;sketch=0;strokeColor=#909090;fillColor=#F5AB50;fontColor=#1A1A1A;" vertex="1" parent="1">
                    <mxGeometry x="550" y="380" width="120" height="60" as="geometry"/>
                </mxCell>
                <mxCell id="33" value="等待队列" style="text;html=1;strokeColor=none;fillColor=none;align=center;verticalAlign=middle;whiteSpace=wrap;rounded=0;sketch=0;fontColor=#1A1A1A;" vertex="1" parent="1">
                    <mxGeometry x="590" y="350" width="60" height="20" as="geometry"/>
                </mxCell>
                <mxCell id="34" value="图4" style="text;html=1;strokeColor=#6F0000;fillColor=#a20025;align=center;verticalAlign=middle;whiteSpace=wrap;rounded=0;sketch=0;fontColor=#ffffff;" vertex="1" parent="1">
                    <mxGeometry x="500" y="460" width="40" height="20" as="geometry"/>
                </mxCell>
            </root>
        </mxGraphModel>
    </diagram>
</mxfile>